<svg xmlns="http://www.w3.org/2000/svg" viewBox="0 0 83.51 100.32"><defs><style>.cls-1{fill:#fff;}</style></defs><title>sisspa-white</title><g id="Layer_2" data-name="Layer 2"><g id="Layer_1-2" data-name="Layer 1"><path class="cls-1" d="M76.1,27.24A4.8,4.8,0,0,1,81.37,30c1.07,2,.51,3.84-.72,5.62a4.17,4.17,0,0,0-.85,2.18c0,10.46.14,20.92.18,31.37a2.91,2.91,0,0,0,1.36,2.87,4.8,4.8,0,0,1,1.41,6.66,5.3,5.3,0,0,1-6.49,2.38,3.09,3.09,0,0,0-2.08.08Q61.06,87.79,48,94.52a3.2,3.2,0,0,0-1.38,1.61c-1,2.85-3.41,4.57-6,4.12a5.5,5.5,0,0,1-4.49-5.7,2.21,2.21,0,0,0-.82-1.7Q22.42,83.25,9.45,73.77a2.92,2.92,0,0,0-1.93-.41,5.5,5.5,0,0,1-6-2.91c-1-2-.49-4.32,1.31-6.16a2.88,2.88,0,0,0,.8-1.78q0-16-.23-31.95a3.18,3.18,0,0,0-1.15-2.14A5.29,5.29,0,0,1,.58,21.73a5.22,5.22,0,0,1,6.75-2.49,2.76,2.76,0,0,0,1.92-.11Q22.46,12.47,35.61,5.7A3.21,3.21,0,0,0,37,4c1-2.7,3.43-4.4,5.9-3.95A5.51,5.51,0,0,1,47.4,5.73a2.45,2.45,0,0,0,.78,1.71Q61.05,17.06,74,26.55A7.24,7.24,0,0,0,76.1,27.24Zm-65.79-6c0,1.57-.08,2.9,0,4.2a2.38,2.38,0,0,0,.89,1.47c2.75,2,5.54,4,8.32,6L35.72,44.4c1.4-.71,2.64-1.24,3.78-1.94a2.29,2.29,0,0,0,1-1.48c.15-9.8.23-19.6.29-29.4a1.83,1.83,0,0,0-.52-1.27c-1-.91-2.19-1.71-3.41-2.62ZM46.59,92.6,73.82,78.72c-2-1.58.58-4-1.69-5.46-1.74-1.1-3.37-2.38-5-3.58l-1.89-1.36L47.81,55.92l-5.26,2.66c0,9.91,0,20.16,0,30.42a1.61,1.61,0,0,0,.62,1C44.23,90.88,45.31,91.65,46.59,92.6Zm-9.43-1.31c3.13-.72,3.19-2.8,3.16-5.13-.06-5.42.08-10.84.12-16.26,0-3.92,0-7.84,0-11.31A45.38,45.38,0,0,1,36,55.65a1.65,1.65,0,0,0-2.17-.3C26.73,59,19.59,62.61,12.49,66.27a2,2,0,0,0-.94,1.21c-.33,1.34-.5,2.72-.77,4.34ZM72.41,35.88,49.85,47.38a23.57,23.57,0,0,1,.2,3.23A27.78,27.78,0,0,1,49.42,54L75,72.2l2.84-1.4V38ZM5.87,62.54a14,14,0,0,1,3.2,1.3,2.35,2.35,0,0,0,2.91.07c6.87-3.55,13.78-7,20.65-10.56,2.66-1.37.21-4.22,1.59-6,.17-.24,0-.81-.13-1.18-.07-.2-.4-.32-.61-.47-7.87-5.62-15.77-11.2-23.57-16.92-1.48-1.08-2.26.1-3.27.46-.42.16-.8,1.06-.81,1.63,0,3.36,0,6.71,0,10.07Q5.89,51.74,5.87,62.54Zm37.27-20.8c1.55,1,3,2.13,4.63,3.08a1.8,1.8,0,0,0,1.49,0q10.62-5.33,21.17-10.77a1.89,1.89,0,0,0,.95-1c.39-1.5.66-3,1-4.78L46.4,9.06C43.31,9.64,43,11.54,43.15,14s0,4.64,0,7C43.13,27.94,43.14,35,43.14,41.74ZM41.63,55.8a5.65,5.65,0,1,0-5.57-5.72A5.64,5.64,0,0,0,41.63,55.8ZM78.31,73.25a3.08,3.08,0,0,0-3,2.92,2.83,2.83,0,0,0,2.75,2.88,2.94,2.94,0,0,0,3.11-2.74A3.06,3.06,0,0,0,78.31,73.25Zm-34,21.69a2.93,2.93,0,0,0-5.86.07,3,3,0,0,0,2.95,3A3.12,3.12,0,0,0,44.35,94.94Zm35.23-62.7a3.05,3.05,0,0,0-3-2.89,2.92,2.92,0,0,0,0,5.84A3.09,3.09,0,0,0,79.58,32.24Zm-34.53-27A3.16,3.16,0,0,0,42,2.34a3.1,3.1,0,0,0-2.81,3.11A2.82,2.82,0,0,0,42.1,8.14,3,3,0,0,0,45.05,5.22ZM8.19,24a2.93,2.93,0,0,0-5.86,0A3,3,0,0,0,5.26,27,3.11,3.11,0,0,0,8.19,24Zm1,44.27a2.9,2.9,0,0,0-2.88-3,3.11,3.11,0,0,0-3,3,3.18,3.18,0,0,0,2.84,2.91A3,3,0,0,0,9.2,68.27Z"/></g></g></svg>