<svg xmlns="http://www.w3.org/2000/svg" viewBox="0 0 212.73 52.52"><title>sisspa-text-black_1</title><g id="Layer_2" data-name="Layer 2"><g id="Layer_1-2" data-name="Layer 1"><path d="M60.08,40.31c-3.26,0-6.52,0-9.77,0-1.16,0-1.54-.41-1.54-1.5,0-4.18-.19-3.45,3.29-3.47,5.09,0,10.18,0,15.27,0,.88,0,2,.23,2.4-.86a4.7,4.7,0,0,0-.06-3.73c-.39-.85-1.29-.75-2.06-.75H55.22c-4.31,0-6.34-1.95-6.46-6.23,0-1,0-2,.05-3a5.17,5.17,0,0,1,5.12-5.08c3.39-.29,6.78-.1,10.17-.13,2.89,0,5.78,0,8.67,0,1.23,0,1.84.31,1.8,1.71-.1,3.71.37,3.31-3.31,3.32-4.86,0-9.73,0-14.59,0-.82,0-1.84-.26-2.2.87a4.89,4.89,0,0,0,.13,3.61c.27.57,1.09.53,1.74.53H68a20.25,20.25,0,0,1,2.06.06c3.38.35,5.11,2.12,5.32,5.52a35.32,35.32,0,0,1,0,3.71,5.15,5.15,0,0,1-5.32,5.31c-3.35.1-6.7,0-10,0Z"/><path d="M100.61,40.28c-3.3,0-6.61,0-9.91,0-1,0-1.41-.37-1.41-1.34,0-4.4-.25-3.52,3.31-3.54,5.05,0,10.1,0,15.14,0,.93,0,2.06.21,2.52-.93a4.75,4.75,0,0,0,0-3.61c-.36-.9-1.29-.9-2.13-.9H95.87c-4.57,0-6.54-1.93-6.59-6.52a19,19,0,0,1,.14-3.29,4.89,4.89,0,0,1,4.82-4.45c6.51-.35,13-.06,19.54-.11.87,0,1.2.41,1.19,1.27-.06,4.26.49,3.57-3.38,3.61-4.73,0-9.46,0-14.18,0-.94,0-2.08-.22-2.48.95a4.82,4.82,0,0,0,.2,3.74c.3.62,1,.38,1.49.39,3.95,0,7.89,0,11.84,0,5.74,0,7.44,1.72,7.44,7.49,0,.6,0,1.2,0,1.79-.2,3.22-2.13,5.19-5.36,5.28s-6.61,0-9.91,0Z"/><path d="M177.74,21.36c-.47-3.6-2.5-5.44-6.11-5.65-6.51-.39-13-.1-19.52-.21-1.33,0-1.88.53-1.86,1.9.07,3.53,0,7.06,0,10.59s0,7.15,0,10.72c0,1.17.38,1.71,1.6,1.61a18.51,18.51,0,0,1,2.47,0c1,.06,1.41-.36,1.38-1.37,0-1.69,0-3.39,0-5.08,0-.86.29-1.1,1.11-1.09q4.81,0,9.63,0a36,36,0,0,0,6.31-.23,5.57,5.57,0,0,0,4.9-4.87A19.59,19.59,0,0,0,177.74,21.36Zm-6,5.83a2.76,2.76,0,0,1-2.5.89c-2.06,0-4.12,0-6.19,0h0c-2.11,0-4.21,0-6.32,0-.77,0-1.06-.22-1-1,0-1.83,0-3.67,0-5.5,0-.83.28-1.13,1.12-1.13,4,0,8.07,0,12.1,0,1.25,0,2.74,0,3.21,1.56C172.63,23.77,172.84,25.57,171.74,27.19Z"/><path d="M210.08,40.17c-.55,0-1.1,0-1.64,0a1.43,1.43,0,0,1-1.55-.88,18.47,18.47,0,0,1-1.11-2c-.62-1.76-1.81-2.14-3.59-2.08-4.26.16-8.53.1-12.79.06a1.92,1.92,0,0,0-2.1,1.26c-1.76,3.81-1.82,3.78-6.1,3.77-1.79,0-1.83,0-1-1.61q5.43-9.95,10.88-19.88c1.64-3,4.16-3.91,7.41-2.86a4.87,4.87,0,0,1,2.66,2.63q4.41,8,8.8,16c.82,1.49,1.62,3,2.48,4.45.52.9.29,1.24-.73,1.17C211.19,40.14,210.63,40.17,210.08,40.17Zm-13.69-9v0c1.56,0,3.12,0,4.67,0,1.11,0,1.28-.31.75-1.26-1.61-2.87-3.16-5.78-4.76-8.66-.53-1-1-1-1.55,0-1.63,3-3.2,6-4.81,9-.41.76-.16.95.61.94C193,31.19,194.69,31.21,196.39,31.21Z"/><path d="M84.9,28c0,3.62,0,7.24,0,10.85,0,1.07-.33,1.44-1.41,1.45-4,0-4,.07-4-4q0-9.48,0-19c0-1.69.11-1.82,1.77-1.82,4.42,0,3.54-.35,3.6,3.52C84.94,22.06,84.9,25,84.9,28Z"/><path d="M146.16,30.52a5,5,0,0,0-4.66-4.78,16.76,16.76,0,0,0-4.64-.06c-3.24,0-6.49,0-9.73,0-.65,0-1.35,0-1.73-.58a4.32,4.32,0,0,1-.23-3.58c.31-1.1,1.38-1,2.3-1,3.19,0,6.39,0,9.59,0a33.55,33.55,0,0,0,7.36.09c1.34-.08,1-1.37.93-2.2s.64-2.29-.94-2.77a.33.33,0,0,0-.13,0c-2.41,0-4.83-.26-7.23.15-4,0-8,0-12,.06-3.26.08-5.11,1.84-5.43,5a21.26,21.26,0,0,0,0,3.29c.25,4.12,2.18,5.9,6.34,5.9l10.86,0,2.29.15a1.56,1.56,0,0,1,1.56,1.27c.67,2.59-.07,3.67-2.69,4a1.28,1.28,0,0,0-.37.14c-5,0-9.89-.06-14.84,0-3.36,0-3.13-.78-3.17,3.25,0,1.17.41,1.56,1.61,1.54,5.5-.06,11,0,16.49,0a11.9,11.9,0,0,0,3.95,0,5,5,0,0,0,4.54-4.74A19.84,19.84,0,0,0,146.16,30.52Z"/><path d="M39.84,14.26a2.52,2.52,0,0,1,2.76,1.46,2.64,2.64,0,0,1-.38,2.94,2.3,2.3,0,0,0-.44,1.15c0,5.47.07,11,.1,16.42a1.51,1.51,0,0,0,.7,1.5,2.51,2.51,0,0,1,.74,3.49,2.78,2.78,0,0,1-3.39,1.25,1.57,1.57,0,0,0-1.09,0Q32,46,25.12,49.49a1.7,1.7,0,0,0-.72.84,2.92,2.92,0,0,1-3.14,2.16,2.9,2.9,0,0,1-2.35-3,1.16,1.16,0,0,0-.43-.89q-6.75-5-13.53-10a1.48,1.48,0,0,0-1-.21A2.88,2.88,0,0,1,.81,36.88a2.73,2.73,0,0,1,.68-3.22,1.48,1.48,0,0,0,.42-.93c0-5.58,0-11.16-.12-16.73a1.67,1.67,0,0,0-.6-1.12,2.76,2.76,0,0,1-.88-3.5,2.72,2.72,0,0,1,3.53-1.31,1.43,1.43,0,0,0,1-.06q6.91-3.48,13.8-7a1.68,1.68,0,0,0,.71-.88,2.78,2.78,0,0,1,5.47.9,1.26,1.26,0,0,0,.4.89q6.75,5,13.53,10A3.41,3.41,0,0,0,39.84,14.26ZM5.4,11.11c0,.82-.05,1.52,0,2.2a1.26,1.26,0,0,0,.47.77c1.44,1.06,2.9,2.09,4.36,3.13l8.45,6c.74-.37,1.39-.65,2-1a1.22,1.22,0,0,0,.55-.77c.08-5.14.12-10.27.15-15.4a1,1,0,0,0-.27-.66C20.56,4.92,20,4.51,19.33,4Zm19,37.37,14.26-7.27c-1-.82.3-2.11-.88-2.86-.92-.57-1.77-1.24-2.65-1.87l-1-.71L25,29.28l-2.75,1.39c0,5.19,0,10.56,0,15.93a.83.83,0,0,0,.33.54C23.15,47.58,23.72,48,24.39,48.48Zm-4.94-.68c1.64-.38,1.67-1.47,1.66-2.69,0-2.84,0-5.68.06-8.51,0-2.05,0-4.11,0-5.92a23.3,23.3,0,0,1-2.32-1.55A.85.85,0,0,0,17.72,29c-3.73,1.91-7.46,3.8-11.18,5.71a1.08,1.08,0,0,0-.49.64c-.17.7-.26,1.42-.41,2.27Zm18.46-29-11.81,6a12.81,12.81,0,0,1,.1,1.69,14.35,14.35,0,0,1-.33,1.75L39.24,37.8l1.49-.73V19.92Zm-34.84,14a7.45,7.45,0,0,1,1.68.68,1.22,1.22,0,0,0,1.52,0c3.6-1.86,7.22-3.67,10.81-5.53,1.4-.72.11-2.21.83-3.16.1-.12,0-.42-.06-.62s-.21-.16-.32-.24C13.41,21,9.27,18.05,5.19,15.05c-.78-.56-1.19.06-1.71.24-.22.08-.42.56-.43.86,0,1.75,0,3.51,0,5.27C3.08,25.2,3.07,29,3.07,32.74ZM22.58,21.86c.82.54,1.6,1.11,2.43,1.6a1,1,0,0,0,.78,0c3.7-1.86,7.4-3.75,11.09-5.64a1,1,0,0,0,.49-.53c.21-.79.34-1.6.53-2.51L24.29,4.74c-1.61.31-1.8,1.3-1.7,2.57s0,2.42,0,3.64C22.58,14.63,22.58,18.3,22.58,21.86Zm-.78,7.35a3,3,0,1,0,.08-5.91,3,3,0,1,0-.08,5.91ZM41,38.35a1.61,1.61,0,0,0-1.57,1.53,1.48,1.48,0,0,0,1.43,1.51A1.55,1.55,0,0,0,42.49,40,1.6,1.6,0,0,0,41,38.35ZM23.22,49.7a1.55,1.55,0,0,0-1.6-1.47,1.53,1.53,0,0,0,.07,3.06A1.64,1.64,0,0,0,23.22,49.7ZM41.66,16.88a1.6,1.6,0,0,0-1.57-1.52,1.54,1.54,0,0,0,0,3.07A1.61,1.61,0,0,0,41.66,16.88ZM23.59,2.73A1.67,1.67,0,0,0,22,1.22a1.63,1.63,0,0,0-1.47,1.63A1.47,1.47,0,0,0,22,4.26,1.55,1.55,0,0,0,23.59,2.73ZM4.29,12.56a1.54,1.54,0,0,0-3.07,0,1.58,1.58,0,0,0,1.53,1.55A1.63,1.63,0,0,0,4.29,12.56Zm.53,23.18a1.52,1.52,0,0,0-1.51-1.56,1.62,1.62,0,0,0-1.55,1.55,1.67,1.67,0,0,0,1.48,1.53A1.6,1.6,0,0,0,4.82,35.74Z"/></g></g></svg>