<svg xmlns="http://www.w3.org/2000/svg" viewBox="0 0 139.13 52.52"><title>sisspa-text-black</title><g id="Layer_2" data-name="Layer 2"><g id="Layer_1-2" data-name="Layer 1"><path d="M56.85,33.34c-1.75,0-3.51,0-5.26,0-.62,0-.83-.22-.83-.81,0-2.25-.1-1.86,1.77-1.87,2.74,0,5.49,0,8.23,0,.48,0,1.06.12,1.29-.46a2.51,2.51,0,0,0,0-2c-.21-.46-.69-.41-1.11-.41H54.24c-2.33,0-3.42-1.05-3.48-3.36a14.78,14.78,0,0,1,0-1.63,2.79,2.79,0,0,1,2.76-2.74c1.83-.16,3.65,0,5.48-.07,1.56,0,3.12,0,4.67,0,.67,0,1,.17,1,.92-.06,2,.19,1.79-1.79,1.8H55c-.44,0-1-.13-1.19.47a2.68,2.68,0,0,0,.07,1.95c.15.3.59.29.94.28h6.3c.37,0,.75,0,1.11,0a2.85,2.85,0,0,1,2.87,3,16.67,16.67,0,0,1,0,2,2.78,2.78,0,0,1-2.87,2.86c-1.8.05-3.6,0-5.41,0Z"/><path d="M78.7,33.32c-1.78,0-3.56,0-5.34,0-.55,0-.76-.2-.76-.72,0-2.37-.14-1.9,1.78-1.91,2.72,0,5.44,0,8.16,0,.5,0,1.11.11,1.36-.5a2.58,2.58,0,0,0,0-1.95c-.2-.48-.7-.48-1.15-.48H76.14c-2.46,0-3.52-1.05-3.55-3.52a10.45,10.45,0,0,1,.08-1.77,2.63,2.63,0,0,1,2.6-2.4c3.5-.19,7,0,10.53-.06.47,0,.65.22.64.68,0,2.3.26,1.93-1.82,1.95-2.55,0-5.1,0-7.65,0-.5,0-1.12-.12-1.33.52a2.6,2.6,0,0,0,.1,2c.17.33.53.21.81.21h6.38c3.09,0,4,.93,4,4,0,.32,0,.64,0,1A2.78,2.78,0,0,1,84,33.28c-1.78,0-3.56,0-5.34,0Z"/><path d="M120.27,23.13A3.16,3.16,0,0,0,117,20.08c-3.51-.21-7-.06-10.53-.12-.71,0-1,.29-1,1,0,1.9,0,3.8,0,5.71s0,3.85,0,5.78c0,.63.21.92.86.86a11.8,11.8,0,0,1,1.33,0c.54,0,.76-.19.75-.74,0-.91,0-1.83,0-2.74,0-.46.16-.59.61-.59,1.72,0,3.45,0,5.18,0a19.42,19.42,0,0,0,3.41-.13,3,3,0,0,0,2.64-2.62A10.71,10.71,0,0,0,120.27,23.13ZM117,26.27a1.51,1.51,0,0,1-1.34.48c-1.11,0-2.22,0-3.34,0h0c-1.13,0-2.27,0-3.4,0-.42,0-.58-.12-.56-.55,0-1,0-2,0-3,0-.45.15-.61.6-.61,2.17,0,4.35,0,6.52,0,.67,0,1.48,0,1.73.84A3.1,3.1,0,0,1,117,26.27Z"/><path d="M137.7,33.26c-.29,0-.59,0-.89,0a.78.78,0,0,1-.83-.47c-.18-.38-.46-.72-.6-1.11-.33-.94-1-1.15-1.93-1.12-2.3.09-4.6.05-6.9,0a1,1,0,0,0-1.13.67c-1,2.06-1,2-3.29,2-1,0-1,0-.52-.87q2.92-5.37,5.87-10.72a3.06,3.06,0,0,1,4-1.54,2.59,2.59,0,0,1,1.43,1.42q2.39,4.32,4.75,8.64c.44.8.87,1.6,1.33,2.39.28.49.16.67-.39.63C138.3,33.24,138,33.26,137.7,33.26Zm-7.38-4.83v0c.84,0,1.68,0,2.52,0,.6,0,.69-.16.41-.67-.87-1.55-1.71-3.12-2.57-4.67-.29-.52-.56-.53-.84,0-.87,1.6-1.72,3.23-2.59,4.83-.22.41-.09.51.33.51C128.49,28.42,129.41,28.43,130.32,28.43Z"/><path d="M70.23,26.71c0,1.95,0,3.9,0,5.85,0,.57-.17.77-.76.78-2.15,0-2.15,0-2.15-2.14V21c0-.91.06-1,1-1,2.38,0,1.9-.19,1.94,1.9C70.25,23.5,70.23,25.1,70.23,26.71Z"/><path d="M103.25,28.06a2.7,2.7,0,0,0-2.51-2.57,9.1,9.1,0,0,0-2.5,0H93c-.35,0-.72,0-.93-.32a2.37,2.37,0,0,1-.13-1.93c.17-.59.75-.55,1.24-.55l5.17,0a18.17,18.17,0,0,0,4,.05c.72-.05.54-.74.5-1.19s.35-1.23-.5-1.49l-.07,0a25.38,25.38,0,0,0-3.9.08c-2.15,0-4.3,0-6.44,0A2.73,2.73,0,0,0,89,22.8a13.22,13.22,0,0,0,0,1.78c.14,2.21,1.18,3.17,3.42,3.17h5.85l1.24.08a.84.84,0,0,1,.83.69c.37,1.39,0,2-1.44,2.16a.7.7,0,0,0-.2.08c-2.67,0-5.34,0-8,0-1.81,0-1.69-.42-1.71,1.75,0,.63.22.84.87.83,3,0,5.92,0,8.88,0a6.1,6.1,0,0,0,2.13,0,2.71,2.71,0,0,0,2.45-2.55A10.3,10.3,0,0,0,103.25,28.06Z"/><path d="M39.84,14.26a2.52,2.52,0,0,1,2.76,1.46,2.64,2.64,0,0,1-.38,2.94,2.3,2.3,0,0,0-.44,1.15c0,5.47.07,11,.1,16.42a1.51,1.51,0,0,0,.7,1.5,2.51,2.51,0,0,1,.74,3.49,2.78,2.78,0,0,1-3.39,1.25,1.57,1.57,0,0,0-1.09,0Q32,46,25.12,49.49a1.7,1.7,0,0,0-.72.84,2.92,2.92,0,0,1-3.14,2.16,2.9,2.9,0,0,1-2.35-3,1.16,1.16,0,0,0-.43-.89q-6.75-5-13.53-10a1.48,1.48,0,0,0-1-.21A2.88,2.88,0,0,1,.81,36.88a2.73,2.73,0,0,1,.68-3.22,1.48,1.48,0,0,0,.42-.93c0-5.58,0-11.16-.12-16.73a1.67,1.67,0,0,0-.6-1.12,2.76,2.76,0,0,1-.88-3.5,2.72,2.72,0,0,1,3.53-1.31,1.43,1.43,0,0,0,1-.06q6.91-3.48,13.8-7a1.68,1.68,0,0,0,.71-.88,2.78,2.78,0,0,1,5.47.9,1.26,1.26,0,0,0,.4.89q6.75,5,13.53,10A3.41,3.41,0,0,0,39.84,14.26ZM5.4,11.11c0,.82-.05,1.52,0,2.2a1.26,1.26,0,0,0,.47.77c1.44,1.06,2.9,2.09,4.36,3.13l8.45,6c.74-.37,1.39-.65,2-1a1.22,1.22,0,0,0,.55-.77c.08-5.14.12-10.27.15-15.4a1,1,0,0,0-.27-.66C20.56,4.92,20,4.51,19.33,4Zm19,37.37,14.26-7.27c-1-.82.3-2.11-.88-2.86-.92-.57-1.77-1.24-2.65-1.87l-1-.71L25,29.28l-2.75,1.39c0,5.19,0,10.56,0,15.93a.83.83,0,0,0,.33.54C23.15,47.58,23.72,48,24.39,48.48Zm-4.94-.68c1.64-.38,1.67-1.47,1.66-2.69,0-2.84,0-5.68.06-8.51,0-2.05,0-4.11,0-5.92a23.3,23.3,0,0,1-2.32-1.55A.85.85,0,0,0,17.72,29c-3.73,1.91-7.46,3.8-11.18,5.71a1.08,1.08,0,0,0-.49.64c-.17.7-.26,1.42-.41,2.27Zm18.46-29-11.81,6a12.81,12.81,0,0,1,.1,1.69,14.35,14.35,0,0,1-.33,1.75L39.24,37.8l1.49-.73V19.92Zm-34.84,14a7.45,7.45,0,0,1,1.68.68,1.22,1.22,0,0,0,1.52,0c3.6-1.86,7.22-3.67,10.81-5.53,1.4-.72.11-2.21.83-3.16.1-.12,0-.42-.06-.62s-.21-.16-.32-.24C13.41,21,9.27,18.05,5.19,15.05c-.78-.56-1.19.06-1.71.24-.22.08-.42.56-.43.86,0,1.75,0,3.51,0,5.27C3.08,25.2,3.07,29,3.07,32.74ZM22.58,21.86c.82.54,1.6,1.11,2.43,1.6a1,1,0,0,0,.78,0c3.7-1.86,7.4-3.75,11.09-5.64a1,1,0,0,0,.49-.53c.21-.79.34-1.6.53-2.51L24.29,4.74c-1.61.31-1.8,1.3-1.7,2.57s0,2.42,0,3.64C22.58,14.63,22.58,18.3,22.58,21.86Zm-.78,7.35a3,3,0,1,0,.08-5.91,3,3,0,1,0-.08,5.91ZM41,38.35a1.61,1.61,0,0,0-1.57,1.53,1.48,1.48,0,0,0,1.43,1.51A1.55,1.55,0,0,0,42.49,40,1.6,1.6,0,0,0,41,38.35ZM23.22,49.7a1.55,1.55,0,0,0-1.6-1.47,1.53,1.53,0,0,0,.07,3.06A1.64,1.64,0,0,0,23.22,49.7ZM41.66,16.88a1.6,1.6,0,0,0-1.57-1.52,1.54,1.54,0,0,0,0,3.07A1.61,1.61,0,0,0,41.66,16.88ZM23.59,2.73A1.67,1.67,0,0,0,22,1.22a1.63,1.63,0,0,0-1.47,1.63A1.47,1.47,0,0,0,22,4.26,1.55,1.55,0,0,0,23.59,2.73ZM4.29,12.56a1.54,1.54,0,0,0-3.07,0,1.58,1.58,0,0,0,1.53,1.55A1.63,1.63,0,0,0,4.29,12.56Zm.53,23.18a1.52,1.52,0,0,0-1.51-1.56,1.62,1.62,0,0,0-1.55,1.55,1.67,1.67,0,0,0,1.48,1.53A1.6,1.6,0,0,0,4.82,35.74Z"/></g></g></svg>